<svg width="103.000000" height="102.000000" viewBox="0 0 103 102" fill="none" xmlns="http://www.w3.org/2000/svg" xmlns:xlink="http://www.w3.org/1999/xlink">
	<desc>
			Created with Pixso.
	</desc>
	<defs>
		<clipPath id="clip59_4">
			<rect id="circle-check-regular 1" rx="-0.500000" width="102.000000" height="101.000000" transform="translate(0.500000 0.500000)" fill="white" fill-opacity="0"/>
		</clipPath>
	</defs>
	<rect id="circle-check-regular 1" rx="-0.500000" width="102.000000" height="101.000000" transform="translate(0.500000 0.500000)" fill="#FFFFFF" fill-opacity="0"/>
	<g clip-path="url(#clip59_4)">
		<path id="Vector" d="M51.5 9.56C62.59 9.56 73.24 13.92 81.08 21.69C88.93 29.47 93.34 40.01 93.34 51C93.34 61.98 88.93 72.52 81.08 80.3C73.24 88.07 62.59 92.43 51.5 92.43C40.4 92.43 29.75 88.07 21.91 80.3C14.06 72.52 9.65 61.98 9.65 51C9.65 40.01 14.06 29.47 21.91 21.69C29.75 13.92 40.4 9.56 51.5 9.56ZM51.5 102C65.15 102 78.25 96.62 87.91 87.06C97.57 77.49 103 64.52 103 51C103 37.47 97.57 24.5 87.91 14.93C78.25 5.37 65.15 0 51.5 0C37.84 0 24.74 5.37 15.08 14.93C5.42 24.5 0 37.47 0 51C0 64.52 5.42 77.49 15.08 87.06C24.74 96.62 37.84 102 51.5 102ZM74.23 41.63C76.12 39.76 76.12 36.73 74.23 34.88C72.34 33.03 69.28 33.01 67.41 34.88L45.08 56.99L35.62 47.63C33.73 45.76 30.67 45.76 28.8 47.63C26.93 49.5 26.91 52.53 28.8 54.38L41.68 67.13C43.57 69 46.63 69 48.5 67.13L74.23 41.63Z" fill="#E44188" fill-opacity="1.000000" fill-rule="nonzero"/>
	</g>
</svg>
