<svg width="111.000000" height="106.000000" viewBox="0 0 111 106" fill="none" xmlns="http://www.w3.org/2000/svg" xmlns:xlink="http://www.w3.org/1999/xlink">
	<desc>
			Created with Pixso.
	</desc>
	<defs>
		<clipPath id="clip59_13">
			<rect id="palette-solid 1" rx="-0.500000" width="110.000000" height="105.000000" transform="translate(0.500000 0.500000)" fill="white" fill-opacity="0"/>
		</clipPath>
	</defs>
	<rect id="palette-solid 1" rx="-0.500000" width="110.000000" height="105.000000" transform="translate(0.500000 0.500000)" fill="#FFFFFF" fill-opacity="0"/>
	<g clip-path="url(#clip59_13)">
		<path id="Vector" d="M111 53C111 53.18 111 53.37 111 53.55C110.91 61.11 103.71 66.25 95.8 66.25L74.57 66.25C68.83 66.25 64.17 70.7 64.17 76.18C64.17 76.89 64.25 77.57 64.38 78.23C64.84 80.34 65.79 82.37 66.73 84.42C68.05 87.28 69.35 90.12 69.35 93.12C69.35 99.7 64.67 105.68 57.77 105.95C57.01 105.97 56.25 106 55.47 106C24.84 106 0 82.27 0 53C0 23.72 24.84 0 55.5 0C86.15 0 111 23.72 111 53ZM27.75 59.62C27.75 57.86 27.01 56.18 25.71 54.94C24.41 53.69 22.65 53 20.81 53C18.97 53 17.2 53.69 15.9 54.94C14.6 56.18 13.87 57.86 13.87 59.62C13.87 61.38 14.6 63.06 15.9 64.3C17.2 65.55 18.97 66.25 20.81 66.25C22.65 66.25 24.41 65.55 25.71 64.3C27.01 63.06 27.75 61.38 27.75 59.62ZM27.75 39.75C29.58 39.75 31.35 39.05 32.65 37.8C33.95 36.56 34.68 34.88 34.68 33.12C34.68 31.36 33.95 29.68 32.65 28.44C31.35 27.19 29.58 26.5 27.75 26.5C25.91 26.5 24.14 27.19 22.84 28.44C21.54 29.68 20.81 31.36 20.81 33.12C20.81 34.88 21.54 36.56 22.84 37.8C24.14 39.05 25.91 39.75 27.75 39.75ZM62.43 19.87C62.43 18.11 61.7 16.43 60.4 15.19C59.1 13.94 57.33 13.25 55.5 13.25C53.66 13.25 51.89 13.94 50.59 15.19C49.29 16.43 48.56 18.11 48.56 19.87C48.56 21.63 49.29 23.31 50.59 24.55C51.89 25.8 53.66 26.5 55.5 26.5C57.33 26.5 59.1 25.8 60.4 24.55C61.7 23.31 62.43 21.63 62.43 19.87ZM83.25 39.75C85.08 39.75 86.85 39.05 88.15 37.8C89.45 36.56 90.18 34.88 90.18 33.12C90.18 31.36 89.45 29.68 88.15 28.44C86.85 27.19 85.08 26.5 83.25 26.5C81.41 26.5 79.64 27.19 78.34 28.44C77.04 29.68 76.31 31.36 76.31 33.12C76.31 34.88 77.04 36.56 78.34 37.8C79.64 39.05 81.41 39.75 83.25 39.75Z" fill="#E44188" fill-opacity="1.000000" fill-rule="nonzero"/>
	</g>
</svg>
