<svg width="67.857880" height="115.044922" viewBox="0 0 67.8579 115.045" fill="none" xmlns="http://www.w3.org/2000/svg" xmlns:xlink="http://www.w3.org/1999/xlink">
	<desc>
			Created with Pixso.
	</desc>
	<defs/>
	<path id="Vector" d="M34.11 0C38.26 0 41.61 3.21 41.61 7.18L41.61 15.2C41.99 15.25 42.34 15.29 42.71 15.36C42.81 15.38 42.88 15.38 42.97 15.4L54.22 17.38C58.3 18.1 60.99 21.85 60.24 25.74C59.49 29.62 55.58 32.23 51.53 31.51L40.39 29.55C33.06 28.52 26.59 29.22 22.04 30.95C17.49 32.68 15.67 35.06 15.24 37.26C14.78 39.66 15.13 41.01 15.53 41.84C15.95 42.72 16.81 43.7 18.53 44.8C22.35 47.21 28.21 48.78 35.8 50.71L36.48 50.89C43.18 52.6 51.39 54.66 57.48 58.48C60.81 60.57 63.95 63.4 65.89 67.36C67.89 71.38 68.31 75.87 67.39 80.65C65.78 89.19 59.64 94.89 52.02 97.88C48.81 99.14 45.31 99.95 41.61 100.35L41.61 107.85C41.61 111.83 38.26 115.04 34.11 115.04C29.96 115.04 26.61 111.83 26.61 107.85L26.61 100.01C26.52 99.99 26.4 99.99 26.31 99.97L26.26 99.97C20.54 99.12 11.14 96.76 4.81 94.06C1.04 92.44 -0.67 88.2 1.02 84.58C2.71 80.97 7.13 79.33 10.91 80.94C15.81 83.03 23.87 85.1 28.53 85.8C36.01 86.85 42.17 86.25 46.35 84.61C50.31 83.06 52.11 80.81 52.63 78.11C53.07 75.73 52.72 74.36 52.32 73.53C51.88 72.63 51.01 71.65 49.28 70.54C45.43 68.14 39.55 66.57 31.93 64.64L31.28 64.48C24.6 62.73 16.39 60.64 10.3 56.82C6.97 54.73 3.85 51.88 1.91 47.93C-0.06 43.91 -0.46 39.41 0.48 34.63C2.17 26.05 8.87 20.48 16.49 17.58C19.6 16.39 23.03 15.58 26.61 15.11L26.61 7.18C26.61 3.21 29.96 0 34.11 0Z" fill="#E44188" fill-opacity="1.000000" fill-rule="nonzero"/>
</svg>
